<?xml version="1.0" standalone="no"?>
<!DOCTYPE svg PUBLIC "-//W3C//DTD SVG 20010904//EN"
 "http://www.w3.org/TR/2001/REC-SVG-20010904/DTD/svg10.dtd">
<svg version="1.0" xmlns="http://www.w3.org/2000/svg"
 width="500.000000pt" height="500.000000pt" viewBox="0 0 500.000000 500.000000"
 preserveAspectRatio="xMidYMid meet">
<metadata>
Created by potrace 1.14, written by Peter Selinger 2001-2017
</metadata>
<g transform="translate(0.000000,500.000000) scale(0.100000,-0.100000)"
fill="#000000" stroke="none">
<path d="M4473 3970 c-123 -28 -270 -158 -238 -209 10 -18 66 -12 150 14 93
30 152 33 214 11 81 -30 117 -29 151 2 90 81 -1 181 -170 187 -41 1 -89 -1
-107 -5z"/>
<path d="M3664 3849 c-16 -5 -41 -20 -54 -34 -33 -35 -31 -93 10 -215 17 -52
67 -210 112 -350 44 -140 96 -304 115 -365 56 -178 63 -207 63 -270 0 -110
-63 -176 -168 -177 -94 0 -157 54 -192 164 -12 37 -28 75 -36 83 -32 32 -172
31 -223 -1 -31 -21 -40 -34 -66 -101 -38 -97 -103 -145 -197 -145 -57 1 -112
25 -137 61 -22 31 -41 93 -36 118 37 173 54 232 166 555 44 124 79 243 79 263
0 112 -140 194 -229 133 -66 -45 -75 -74 -77 -248 -2 -156 -10 -382 -19 -540
-16 -253 -44 -313 -155 -326 -61 -7 -107 17 -130 68 -20 46 -41 189 -49 329
-2 38 -38 61 -99 64 -107 6 -113 -1 -127 -155 -4 -41 -9 -84 -12 -95 -2 -11
-6 -32 -8 -47 -16 -112 -56 -159 -137 -165 -90 -7 -135 36 -158 149 -6 35 -14
72 -16 83 -20 100 -43 373 -48 578 -3 91 -7 123 -19 135 -27 26 -43 -1 -66
-116 -89 -433 -164 -705 -213 -775 -34 -47 -92 -70 -165 -64 -130 10 -166 63
-233 341 -25 106 -42 142 -72 152 -36 11 -53 -31 -73 -186 -3 -25 -8 -52 -10
-60 -2 -8 -7 -35 -10 -60 -17 -120 -87 -188 -199 -194 -63 -4 -99 8 -152 48
-85 63 -117 149 -159 422 -21 138 -24 153 -39 183 -43 81 -149 108 -226 57
-53 -35 -84 -117 -76 -201 4 -49 21 -91 91 -230 123 -247 137 -331 88 -553
-43 -198 -71 -266 -179 -437 -86 -136 -118 -225 -118 -335 -1 -96 11 -134 61
-197 85 -106 257 -116 326 -19 20 28 22 41 20 132 l-3 102 32 31 c26 26 40 31
78 31 26 0 72 -9 103 -19 31 -11 64 -17 74 -15 28 8 45 41 38 75 -6 24 -27 43
-108 97 -114 74 -186 142 -219 205 -17 33 -22 60 -22 127 0 98 20 154 75 208
101 99 359 150 486 97 114 -47 158 -195 81 -274 -17 -17 -38 -31 -47 -32 -9 0
-24 -2 -34 -4 -9 -2 -34 2 -55 8 -20 6 -39 11 -42 12 -62 15 -75 16 -101 5
-33 -14 -48 -52 -29 -75 6 -7 43 -30 82 -50 123 -62 209 -140 249 -224 23 -49
28 -123 15 -221 -6 -47 -4 -60 14 -88 60 -95 208 -66 252 50 33 90 41 257 21
446 -15 142 -24 155 -119 167 -27 3 -59 11 -72 18 -31 15 -52 68 -52 129 0
113 75 176 198 165 37 -3 94 -13 127 -22 33 -8 71 -18 85 -20 14 -3 36 -7 50
-11 14 -3 68 -5 122 -5 77 1 100 -3 117 -17 29 -24 41 -97 24 -146 -13 -39
-54 -85 -76 -87 -91 -9 -125 -22 -145 -59 -15 -30 -10 -238 8 -335 23 -120 90
-196 175 -201 51 -3 87 19 114 67 20 35 21 46 15 181 -22 461 -4 533 128 533
56 0 62 -2 93 -36 27 -29 35 -49 41 -95 9 -78 9 -154 0 -239 -4 -38 -9 -86
-11 -105 -2 -19 -6 -57 -9 -85 -11 -89 -10 -199 2 -222 26 -47 79 -38 102 18
11 27 11 48 0 128 -20 143 -22 353 -5 434 36 169 136 267 307 303 202 42 409
-56 465 -219 26 -77 23 -190 -6 -250 -25 -52 -43 -66 -99 -73 -80 -10 -130 23
-152 102 -28 97 -107 135 -162 77 -40 -43 -60 -115 -65 -238 -4 -95 -2 -115
15 -144 20 -37 73 -71 109 -71 34 0 72 40 96 100 34 85 114 126 198 101 79
-24 111 -93 89 -189 -18 -74 -15 -113 11 -135 29 -24 56 -21 74 7 15 22 15 33
1 123 -12 75 -15 169 -13 398 3 267 5 304 21 333 28 51 71 74 130 69 90 -8
110 -59 115 -299 1 -15 9 -34 18 -44 16 -16 19 -14 55 27 21 24 38 47 38 51 0
17 73 165 96 196 66 86 197 87 241 1 19 -35 15 -118 -6 -166 -11 -23 -46 -81
-79 -130 -131 -194 -132 -205 -22 -323 77 -82 150 -209 150 -260 0 -11 10 -30
22 -42 l21 -21 17 21 c14 17 17 34 13 85 -5 61 -5 64 27 90 25 22 42 27 84 27
29 0 73 -6 97 -13 76 -23 129 -5 129 45 0 32 -41 75 -133 136 -104 71 -152
121 -176 187 -66 175 26 360 211 429 50 18 180 24 258 11 58 -10 120 -37 143
-63 23 -25 45 -99 41 -132 -11 -76 -65 -132 -118 -125 -27 4 -81 14 -126 24
-47 11 -81 4 -104 -19 -34 -33 -10 -62 97 -114 112 -55 164 -98 217 -176 51
-75 84 -98 151 -105 66 -7 113 14 146 63 19 29 22 44 19 110 -4 86 -18 134
-81 272 -56 123 -76 203 -77 304 -1 160 24 251 133 487 98 211 117 330 75 457
-20 58 -80 128 -136 157 -114 60 -287 51 -383 -19 -15 -11 -37 -40 -49 -65
-20 -41 -23 -61 -22 -181 0 -149 8 -279 25 -385 23 -155 4 -249 -62 -296 -27
-19 -46 -24 -94 -24 -107 1 -174 58 -193 164 -10 56 -8 201 3 275 9 58 13 84
20 145 4 30 9 63 11 75 11 55 15 223 5 248 -16 41 -54 60 -129 65 -37 3 -83
13 -102 22 -77 39 -101 146 -56 250 17 39 21 62 16 81 -22 78 -91 119 -166 99z"/>
<path d="M755 3791 c-57 -25 -76 -86 -71 -235 6 -176 54 -337 103 -344 40 -6
71 46 88 148 12 74 35 162 49 188 44 85 159 123 230 77 57 -38 74 -82 130
-336 20 -91 34 -114 63 -105 24 8 40 43 90 201 86 270 22 346 -262 312 -65 -8
-121 5 -224 54 -86 40 -160 55 -196 40z"/>
<path d="M2316 3599 c-67 -19 -105 -88 -101 -185 3 -76 22 -110 68 -122 55
-15 131 5 167 43 17 18 23 36 23 72 0 53 -9 107 -22 132 -25 46 -86 73 -135
60z"/>
<path d="M3332 3257 c-52 -23 -82 -145 -53 -214 35 -86 173 -99 206 -21 24 59
-10 159 -74 215 -31 28 -51 32 -79 20z"/>
<path d="M3443 1432 c-41 -26 -48 -207 -11 -276 21 -39 40 -50 86 -50 41 -1
48 3 68 32 30 43 26 82 -18 175 -50 103 -90 141 -125 119z"/>
<path d="M4637 1350 c-26 -16 -48 -67 -43 -98 2 -15 5 -32 5 -39 2 -23 56 -76
96 -94 22 -11 63 -19 93 -19 46 0 58 4 83 29 33 34 37 66 13 114 -23 46 -44
66 -88 89 -46 23 -134 33 -159 18z"/>
</g>
</svg>
