<svg xmlns="http://www.w3.org/2000/svg" fill="none" viewBox="0 0 500 297">
  <g fill="#CCFF19" filter="url(#a)">
    <path d="M239.595 68.028c5.538-1.891 10.612-5.952 6.623-20.82-3.988-14.868-24.993-13.215-24.993 7.729 0 13.194 5.682 17.048 18.381 13.08l-.011.01ZM68.224 43.809c.889 15.281 6.84 45.69 16.831 28.207 5.146-12.988 1.953-32.919 18.061-38.023 22.215-5.62 21.977 23.868 26.131 38.653 2.428 10.395 6.809 9.93 10.125.062 8.483-25.283 20.944-51.134-23.227-44.15-14.775 1.21-21.305-8.937-34.613-10.415C69.123 16.78 67.346 28.508 68.234 43.81h-.01Z"/>
    <path d="M491.331 117.158c24.953-47.642-8.927-70.652-38.973-60.372-9.454 3.234-13.835 10.55-14.021 21.336-.341 19.229 1.136 34.386 3.523 51.497 2.997 21.542-8.555 29.591-22.937 25.128-12.719-3.947-13.391-15.468-13.649-25.449.382-20.075 5.362-38.622 5.899-58.698.248-9.402-5.558-12.48-14.94-12.491-15.364 1.395-21.677-15.633-14.672-26.844 7.191-11.52-8.576-25.128-20.21-15.415-6.561 5.486-.238 18.577 3.751 31.327 4.339 13.877 16.159 51.01 23.836 75.87 3.689 10.952 4.247 27.97-9.268 30.418-14.744 4.113-23.34-6.313-25.541-19.042-2.16-8.927-11.262-7.46-18.371-6.861-6.819.321-10.642 3.896-12.802 10.364-4.525 23.506-39.562 20.902-37.31-2.098 5.074-26.657 16.005-51.764 24.168-77.564 4.556-19.6-28.249-29.52-30.439-3.317.082 10.518 0 20.551 0 27.629-2.552 24.342.434 42.527-5.631 62.448-2.676 6.158-7.894 7.935-14.197 7.739-14.135-.32-12.523-17.079-14.537-27.102-.879-8.049 1.787-20.096-10.136-19.207-11.831-.414-11.738-.269-12.947 11.313-.899 8.587-1.725 17.297-3.967 25.583-2.542 13.143-23.186 13.101-26.451.692-7.687-29.509-8.08-80.354-8.235-81.81-.041-6.655-5.734-6.51-6.778-.29-1.043 6.22-11.345 60.899-20.54 81.697-6.128 14.424-29.127 13.804-35.006-.392-2.728-6.138-4.216-12.854-6.003-19.384-1.209-4.422-1.674-9.061-3.11-13.39-2.418-5.735-7.967-10.911-10.033-1.147-2.2 8.379-2.438 18.123-4.401 26.564-2.232 18.464-22.618 23.558-34.252 14.538-13.918-10.797-13.546-26.74-18.64-56.001-2.862-16.46-23.289-18.195-29.55-5.538-13.597 27.484 24.105 43.147 17.451 82.689-8.214 48.872-20.881 49.254-28.806 70.435-19.435 51.92 46.578 58.894 37.578 23.444-2.645-10.405 6.014-19.693 23.59-11.768 9.143 4.122 12.656-7.781 4.287-12.337-14.734-9.144-32.619-19.177-30.832-39.263.331-11.675 5.704-20.003 16.346-24.828 26.44-11.996 53.18-6.386 52.282 14.424-.434 9.092-7.502 14.558-16.47 12.564-3.802-.848-7.491-2.697-11.283-2.893-7.76-.507-11.82 6.881-3.844 10.735 19.084 8.131 37.403 23.371 31.597 43.488-5.807 20.128 18.918 23.837 25.386 9.744 7.563-16.46 3.224-44.873 2.593-53.862-1.333-18.754-21.388-.682-23.805-21.543-1.095-8.121 1.777-17.596 12.171-19.384 17.358-2.986 25.697 7.822 51.972 5.363 13.68-1.281 11.623 26.585-2.986 25.769-9.248.785-11.955 2.665-12.089 12.119-.197 14.393.775 23.754 3.833 33.87 4.97 16.418 30.212 20.179 29.24-4.95-.971-25.128-3.74-29.509-.795-49.574 2.263-15.405 23.206-14.661 25.748-.847 3.895 21.036-1.622 33.528-2.521 62.634-.434 14.176 15.757 10.725 12.047-6.034-.527-2.387-.95-5.373-1.374-8.607-1.591-12.316-2.376-29.56 1.323-42.445 10.528-38.58 79.093-35.068 78.225 9.31-.258 9.443-3.275 20.334-14.403 19.631-7.367.186-11.417-2.872-13.7-10.394-1.085-10.467-12.348-14.992-18.03-5.394-4.743 9.609-5.342 21.305-4.423 31.545.961 10.787 17.462 18.092 21.564 2.521 4.092-15.53 26.172-16.15 29.664-1.881 1.24 5.084-.62 9.806-1.633 13.66-3.409 12.967 13.319 15.405 10.787 3.11-4.505-21.884-2.128-44.749-2.345-72.192.599-7.677 5.982-16.149 14.723-14.672 20.014-.785 5.084 42.951 17.39 34.138 10.797-9.692 9.547-31.803 26.492-33.673 8.782-.744 14.754 4.371 14.196 13.112 1.932 17.12-29.622 38.167-17.523 49.615 14.93 14.621 19.424 24.343 20.644 32.33 1.322 8.648 9.464 5.311 6.984-4.029-2.325-8.773 3.524-13.174 12.895-12.885 6.282-.093 13.959 5.321 19.073 1.281 8.958-7.067-11.995-17.627-19.135-23.185-25.108-19.539-8.628-58.171 22.183-57.923 16.491-.248 33.859 1.209 33.26 20.086-4.887 26.182-26.606 1.643-35.739 12.481-3.689 7.181 6.406 7.512 20.179 16.036 13.772 8.534 12.254 20.344 25.417 23.062 22.586 2.986 21.005-18.485 14.475-35.099-6.395-16.294-25.551-37.62 2.522-91.214l-.011-.051Z"/>
    <path d="M358.933 271.098c-3.471-7.459-7.398-16.242-11.489-16.862-6.427-.981-6.282 7.987-6.84 12.833-1.333 31.513 27.401 23.578 18.319 4.04l.01-.011ZM336.461 71.479c-7.409-1.757-14.569 18.453-6.2 26.006 7.419 6.695 19.415 4.298 19.415-6.22 0-4.815-5.322-17.916-13.215-19.786ZM467.753 261.903c-12.192.175-13.122 24.219 9.082 26.244 22.204 2.025 14.465-26.575-9.082-26.244ZM424.151 22.597c7.015 3.802 22.979-9.97 37.062-2.738 15.643 8.028 25.231-10.911 9.133-17.183-28.682-11.18-53.201 16.118-46.195 19.92Z"/>
  </g>
  <defs>
    <filter id="a" width="500" height="296.261" x="0" y="0" color-interpolation-filters="sRGB" filterUnits="userSpaceOnUse">
      <feFlood flood-opacity="0" result="BackgroundImageFix"/>
      <feColorMatrix in="SourceAlpha" result="hardAlpha" values="0 0 0 0 0 0 0 0 0 0 0 0 0 0 0 0 0 0 127 0"/>
      <feOffset dy="8"/>
      <feComposite in2="hardAlpha" operator="out"/>
      <feColorMatrix values="0 0 0 0 0 0 0 0 0 0 0 0 0 0 0 0 0 0 0.25 0"/>
      <feBlend in2="BackgroundImageFix" result="effect1_dropShadow_101_3"/>
      <feBlend in="SourceGraphic" in2="effect1_dropShadow_101_3" result="shape"/>
    </filter>
  </defs>
</svg>